<svg width="82" height="89" viewBox="0 0 82 89" fill="none" xmlns="http://www.w3.org/2000/svg">
<path d="M54.1655 33.16V56.254C54.1655 57.1134 53.4624 57.8165 52.603 57.8165H29.509C28.6496 57.8165 27.9465 57.1134 27.9465 56.254V33.16C27.9465 32.3007 28.6496 31.5975 29.509 31.5975H52.603C53.4624 31.5975 54.1655 32.3007 54.1655 33.16ZM64.8995 30.2381V59.1761C64.8995 64.348 60.6964 68.5511 55.5245 68.5511H26.5865C21.4146 68.5511 17.2115 64.348 17.2115 59.1761V30.2381C17.2115 25.0662 21.4146 20.8631 26.5865 20.8631H55.5245C60.6964 20.8631 64.8995 25.0662 64.8995 30.2381ZM57.2901 33.16C57.2901 30.5819 55.1807 28.4725 52.6026 28.4725H29.5086C26.9305 28.4725 24.8211 30.5819 24.8211 33.16V56.254C24.8211 58.8321 26.9305 60.9415 29.5086 60.9415H52.6026C55.1807 60.9415 57.2901 58.8321 57.2901 56.254V33.16ZM35.2741 15.363V8.01924C35.2741 7.15986 34.571 6.45674 33.7116 6.45674H20.8676C20.0082 6.45674 19.3051 7.15986 19.3051 8.01924C19.3051 8.87862 20.0082 9.58174 20.8676 9.58174H32.1486V15.3629C32.1486 16.2223 32.8517 16.9254 33.7111 16.9254C34.5705 16.9254 35.2741 16.2224 35.2741 15.363ZM49.9461 15.363V9.58184H61.2271C62.0865 9.58184 62.7896 8.87872 62.7896 8.01934C62.7896 7.15996 62.0865 6.45684 61.2271 6.45684H48.3831C47.5237 6.45684 46.8206 7.15996 46.8206 8.01934V15.3631C46.8206 16.2225 47.5237 16.9256 48.3831 16.9256C49.2425 16.9256 49.9461 16.2224 49.9461 15.363ZM17.1961 11.6911C19.2273 11.6911 20.868 10.0505 20.868 8.01924C20.868 5.98794 19.2274 4.34734 17.1961 4.34734C15.1648 4.34734 13.5242 5.98794 13.5242 8.01924C13.5242 10.0505 15.1648 11.6911 17.1961 11.6911ZM64.8841 11.6911C66.9153 11.6911 68.556 10.0505 68.556 8.01924C68.556 5.98794 66.9154 4.34734 64.8841 4.34734C62.8528 4.34734 61.2122 5.98794 61.2122 8.01924C61.2122 10.0505 62.8528 11.6911 64.8841 11.6911ZM42.6031 15.363V2.51904C42.6031 1.65966 41.9 0.956543 41.0406 0.956543C40.1812 0.956543 39.4781 1.65966 39.4781 2.51904V15.363C39.4781 16.2224 40.1812 16.9255 41.0406 16.9255C41.9 16.9255 42.6031 16.2224 42.6031 15.363ZM62.7751 81.394C62.7751 80.5347 62.072 79.8315 61.2126 79.8315H49.9316V74.0503C49.9316 73.191 49.2285 72.4878 48.3691 72.4878C47.5097 72.4878 46.8066 73.191 46.8066 74.0503V81.3941C46.8066 82.2535 47.5097 82.9566 48.3691 82.9566H61.2131C62.0725 82.9566 62.7751 82.2534 62.7751 81.394ZM35.2591 81.394V74.0502C35.2591 73.1909 34.556 72.4877 33.6966 72.4877C32.8372 72.4877 32.1341 73.1909 32.1341 74.0502V79.8314H20.8531C19.9937 79.8314 19.2906 80.5346 19.2906 81.3939C19.2906 82.2533 19.9937 82.9564 20.8531 82.9564H33.6971C34.5565 82.9564 35.2591 82.2534 35.2591 81.394ZM64.8841 77.7221C62.8529 77.7221 61.2122 79.3627 61.2122 81.394C61.2122 83.4253 62.8528 85.0659 64.8841 85.0659C66.9154 85.0659 68.556 83.4253 68.556 81.394C68.556 79.3627 66.9154 77.7221 64.8841 77.7221ZM17.1961 77.7221C15.1649 77.7221 13.5242 79.3627 13.5242 81.394C13.5242 83.4253 15.1648 85.0659 17.1961 85.0659C19.2274 85.0659 20.868 83.4253 20.868 81.394C20.868 79.3627 19.2274 77.7221 17.1961 77.7221ZM42.6021 86.894V74.05C42.6021 73.1907 41.899 72.4875 41.0396 72.4875C40.1802 72.4875 39.4771 73.1907 39.4771 74.05V86.894C39.4771 87.7534 40.1802 88.4565 41.0396 88.4565C41.899 88.4565 42.6021 87.7534 42.6021 86.894ZM5.91409 63.05V51.769H11.6953C12.5547 51.769 13.2578 51.0659 13.2578 50.2065C13.2578 49.3472 12.5547 48.644 11.6953 48.644H4.35149C3.49211 48.644 2.78899 49.3472 2.78899 50.2065V63.0505C2.78899 63.9099 3.49211 64.613 4.35149 64.613C5.21087 64.613 5.91409 63.9094 5.91409 63.05ZM13.2579 39.206C13.2579 38.3467 12.5548 37.6435 11.6954 37.6435H5.91419V26.3625C5.91419 25.5032 5.21107 24.8 4.35169 24.8C3.49231 24.8 2.78919 25.5032 2.78919 26.3625V39.2065C2.78919 40.0659 3.49231 40.769 4.35169 40.769H11.6955C12.5549 40.769 13.2579 40.0654 13.2579 39.206ZM8.02349 66.722C8.02349 64.6908 6.38289 63.0501 4.35159 63.0501C2.32029 63.0501 0.679688 64.6907 0.679688 66.722C0.679688 68.7533 2.32029 70.3939 4.35159 70.3939C6.38289 70.3939 8.02349 68.7533 8.02349 66.722ZM8.02349 22.706C8.02349 20.6748 6.38289 19.0341 4.35159 19.0341C2.32029 19.0341 0.679688 20.6747 0.679688 22.706C0.679688 24.7373 2.32029 26.3779 4.35159 26.3779C6.38289 26.3779 8.02349 24.7373 8.02349 22.706ZM79.2895 63.065V50.221C79.2895 49.3617 78.5864 48.6585 77.727 48.6585H70.3832C69.5238 48.6585 68.8207 49.3617 68.8207 50.221C68.8207 51.0804 69.5238 51.7835 70.3832 51.7835H76.1644V63.0645C76.1644 63.9239 76.8675 64.627 77.7269 64.627C78.5863 64.627 79.2895 63.9244 79.2895 63.065ZM79.2895 39.221V26.377C79.2895 25.5177 78.5864 24.8145 77.727 24.8145C76.8676 24.8145 76.1645 25.5177 76.1645 26.377V37.658H70.3833C69.5239 37.658 68.8208 38.3612 68.8208 39.2205C68.8208 40.0799 69.5239 40.783 70.3833 40.783H77.7271C78.5865 40.783 79.2895 40.0804 79.2895 39.221ZM77.727 70.409C79.7582 70.409 81.3989 68.7684 81.3989 66.7371C81.3989 64.7058 79.7583 63.0652 77.727 63.0652C75.6957 63.0652 74.0551 64.7058 74.0551 66.7371C74.0551 68.7684 75.6957 70.409 77.727 70.409ZM77.727 26.393C79.7582 26.393 81.3989 24.7524 81.3989 22.7211C81.3989 20.6898 79.7583 19.0492 77.727 19.0492C75.6957 19.0492 74.0551 20.6898 74.0551 22.7211C74.0551 24.7524 75.6957 26.393 77.727 26.393Z" fill="#F15C45"/>
</svg>
