<svg width="891" height="881" viewBox="0 0 891 881" fill="none" xmlns="http://www.w3.org/2000/svg">
<path d="M568.794 558.969C489.876 641.19 404.528 702.188 330.387 734.371C293.313 750.465 259.112 759.322 229.959 760.075C200.814 760.827 176.834 753.481 159.982 737.306C143.131 721.131 134.808 697.473 134.366 668.321C133.923 639.162 141.372 604.626 155.933 566.924C185.052 491.527 242.501 403.752 321.419 321.531C400.338 239.31 485.685 178.313 559.826 146.129C596.9 130.036 631.101 121.178 660.254 120.425C689.399 119.673 713.379 127.019 730.231 143.194C747.083 159.369 755.405 183.028 755.848 212.179C756.29 241.338 748.841 275.874 734.28 313.576C705.162 388.973 647.712 476.748 568.794 558.969Z" stroke="url(#paint0_linear_534_817)" stroke-width="3"/>
<path d="M612.797 404.574C636.512 516.046 639.056 620.919 624.052 700.34C616.549 740.053 604.672 773.327 588.924 797.871C573.18 822.41 553.635 838.126 530.788 842.987C507.941 847.847 483.692 841.448 459.322 825.444C434.946 809.436 410.553 783.878 387.534 750.658C341.499 684.224 301.132 587.398 277.416 475.926C253.701 364.454 251.157 259.581 266.161 180.161C273.664 140.447 285.541 107.174 301.289 82.6291C317.033 58.0909 336.578 42.3744 359.425 37.5137C382.272 32.6531 406.521 39.0525 430.891 55.0565C455.267 71.0648 479.66 96.6221 502.679 129.842C548.714 196.276 589.081 293.103 612.797 404.574Z" stroke="url(#paint1_linear_534_817)" stroke-width="3"/>
<path d="M492.576 275.51C602.087 307.064 695.809 354.191 758.815 404.818C790.32 430.133 814.084 456.276 828.325 481.725C842.562 507.167 847.227 531.809 840.76 554.254C834.292 576.7 817.231 595.081 791.638 609.047C766.039 623.017 732.008 632.506 691.863 637.176C611.579 646.515 507.149 636.546 397.638 604.991C288.127 573.437 194.405 526.31 131.4 475.683C99.8943 450.367 76.1297 424.225 61.8889 398.776C47.6519 373.333 42.9869 348.691 49.4543 326.246C55.9217 303.801 72.9835 285.42 98.5757 271.454C124.175 257.484 158.206 247.995 198.352 243.325C278.635 233.986 383.065 243.955 492.576 275.51Z" stroke="url(#paint2_linear_534_817)" stroke-width="3"/>
<defs>
<linearGradient id="paint0_linear_534_817" x1="731.27" y1="142.112" x2="158.944" y2="738.388" gradientUnits="userSpaceOnUse">
<stop stop-color="#F15C45" stop-opacity="0.4"/>
<stop offset="1" stop-color="#F15C45"/>
</linearGradient>
<linearGradient id="paint1_linear_534_817" x1="359.113" y1="36.0466" x2="531.1" y2="844.454" gradientUnits="userSpaceOnUse">
<stop stop-color="#F15C45"/>
<stop offset="1" stop-color="#F15C45" stop-opacity="0.5"/>
</linearGradient>
<linearGradient id="paint2_linear_534_817" x1="48.0129" y1="325.831" x2="842.201" y2="554.67" gradientUnits="userSpaceOnUse">
<stop stop-color="#F15C45" stop-opacity="0.2"/>
<stop offset="1" stop-color="#F15C45"/>
</linearGradient>
</defs>
</svg>
